<svg width="200" height="200" viewBox="0 0 200 200" fill="none" xmlns="http://www.w3.org/2000/svg">
<path fill-rule="evenodd" clip-rule="evenodd" d="M100 88C117.121 88 131 74.3447 131 57.5C131 40.6553 117.121 27 100 27C82.8792 27 69 40.6553 69 57.5C69 74.3447 82.8792 88 100 88ZM88.0285 91.9175C80.9631 87.9533 70.6307 90.9144 68.9295 98.8353L55.5989 160.9C54.2615 167.126 59.0075 173 65.3759 173H134.852C141.146 173 145.875 167.255 144.665 161.078L132.574 99.3337C131.001 91.3015 120.529 88.1934 113.352 92.1292C109.389 94.3029 105.062 95.8924 100.881 95.8924C96.5662 95.8924 92.0946 94.1989 88.0285 91.9175Z" fill="white"/>
</svg>
