<svg width="200" height="200" viewBox="0 0 200 200" fill="none" xmlns="http://www.w3.org/2000/svg">
<path fill-rule="evenodd" clip-rule="evenodd" d="M70.6279 93C87.7487 93 101.628 79.3447 101.628 62.5C101.628 45.6553 87.7487 32 70.6279 32C53.5071 32 39.6279 45.6553 39.6279 62.5C39.6279 79.3447 53.5071 93 70.6279 93ZM58.6564 96.9175C51.591 92.9533 41.2587 95.9144 39.5574 103.835L26.2268 165.9C24.8895 172.126 29.6354 178 36.0038 178H105.48C111.774 178 116.503 172.255 115.293 166.078L103.202 104.334C101.629 96.3015 91.1567 93.1934 83.9804 97.1292C80.0171 99.3029 75.6897 100.892 71.5092 100.892C67.1941 100.892 62.7225 99.1989 58.6564 96.9175Z" fill="white"/>
<path fill-rule="evenodd" clip-rule="evenodd" d="M135.85 76.5014C150.866 76.5014 163.039 64.5247 163.039 49.7507C163.039 34.9767 150.866 23 135.85 23C120.834 23 108.661 34.9767 108.661 49.7507C108.661 64.5247 120.834 76.5014 135.85 76.5014ZM127.451 81.0313C120.145 77.5305 109.803 80.3992 108.102 88.3201L97.2268 138.952C95.8895 145.179 100.635 151.052 107.004 151.052H164.924C171.218 151.052 175.948 145.307 174.738 139.131L164.885 88.8185C163.312 80.7863 152.828 77.778 145.401 81.2169C142.544 82.5396 139.543 83.4236 136.623 83.4236C133.569 83.4236 130.425 82.4562 127.451 81.0313Z" fill="white"/>
</svg>
